<svg width="136" height="32" viewBox="0 0 136 32" fill="none" xmlns="http://www.w3.org/2000/svg">
<path d="M0 3C0 1.34315 1.34315 0 3 0H133C134.657 0 136 1.34315 136 3V29C136 30.6569 134.657 32 133 32H3C1.34315 32 0 30.6569 0 29V3Z" fill="#1D6AE5"/>
<path d="M28.2766 21H30.9086L32.2806 14.252C32.3226 14.028 32.3506 13.79 32.3646 13.524H32.4206C32.4346 13.79 32.4486 14.028 32.4906 14.252L33.8626 21H36.5086L38.8746 11.06H36.4946L35.2206 17.514C35.1646 17.822 35.1506 18.074 35.1366 18.34H35.0946C35.0806 18.074 35.0526 17.822 34.9826 17.514L33.5686 11.06H31.2026L29.8026 17.514C29.7326 17.822 29.7046 18.074 29.6906 18.34H29.6486C29.6346 18.074 29.6206 17.822 29.5646 17.514L28.2906 11.06H25.9106L28.2766 21ZM45.7787 17.332C45.7787 15.106 44.5467 13.832 42.3487 13.832C40.1647 13.832 38.7927 15.274 38.7927 17.57C38.7927 19.838 40.1927 21.168 42.5027 21.168C43.9587 21.168 45.1487 20.482 45.7087 19.334L44.0567 18.578C43.7347 19.222 43.2167 19.558 42.5307 19.558C41.5927 19.558 40.9347 18.956 40.9207 18.004H45.7787V17.332ZM43.6087 16.744H40.9207C40.9487 15.75 41.4387 15.162 42.3067 15.162C43.1467 15.162 43.6087 15.694 43.6087 16.688V16.744ZM47.1826 15.526C48.4986 15.12 49.0026 14.392 49.0026 13.23V11.06H46.6086V13.356H47.7286V13.384C47.7286 14.014 47.5326 14.336 46.7206 14.602L47.1826 15.526ZM52.6497 15.806V14H50.5357V21H52.7897V18.144C52.7897 17.43 52.9017 16.8 53.3497 16.38C53.6577 16.114 54.1057 15.96 54.7077 15.96C54.8757 15.96 54.9877 15.96 55.1277 15.974V13.832H54.9877C53.7837 13.832 53.0137 14.546 52.6497 15.806ZM62.6498 17.332C62.6498 15.106 61.4178 13.832 59.2198 13.832C57.0358 13.832 55.6638 15.274 55.6638 17.57C55.6638 19.838 57.0638 21.168 59.3738 21.168C60.8298 21.168 62.0198 20.482 62.5798 19.334L60.9278 18.578C60.6058 19.222 60.0878 19.558 59.4018 19.558C58.4638 19.558 57.8058 18.956 57.7918 18.004H62.6498V17.332ZM60.4798 16.744H57.7918C57.8198 15.75 58.3098 15.162 59.1778 15.162C60.0178 15.162 60.4798 15.694 60.4798 16.688V16.744ZM67.5862 21H69.8402V17.234C69.8402 16.128 70.2742 15.526 71.0722 15.526C71.7582 15.526 72.1082 15.974 72.1082 16.87V21H74.3482V16.646C74.3482 14.77 73.5782 13.804 72.0662 13.804C71.0162 13.804 70.2742 14.28 69.8402 15.246V10.85H67.5862V21ZM76.0878 12.992H78.4258V10.948H76.0878V12.992ZM76.1158 21H78.3698V14H76.1158V21ZM82.3587 15.806V14H80.2447V21H82.4987V18.144C82.4987 17.43 82.6107 16.8 83.0587 16.38C83.3667 16.114 83.8147 15.96 84.4167 15.96C84.5847 15.96 84.6967 15.96 84.8367 15.974V13.832H84.6967C83.4927 13.832 82.7227 14.546 82.3587 15.806ZM85.9862 12.992H88.3242V10.948H85.9862V12.992ZM86.0142 21H88.2682V14H86.0142V21ZM90.1431 21H92.3971V17.22C92.3971 16.142 92.8311 15.54 93.6151 15.54C94.3291 15.54 94.6651 16.002 94.6651 16.968V21H96.9051V16.66C96.9051 14.784 96.1351 13.818 94.6231 13.818C93.5591 13.818 92.7891 14.322 92.2991 15.344V14H90.1431V21ZM105.576 14.322V12.824C105.464 12.81 105.38 12.81 105.282 12.81C104.176 12.81 103.49 13.3 103.252 14.084C102.79 13.916 102.258 13.832 101.642 13.832C99.6684 13.832 98.4364 14.756 98.4364 16.17C98.4364 16.982 98.8284 17.626 99.5284 18.046C98.7304 18.34 98.2684 18.886 98.2684 19.642C98.2684 20.244 98.5764 20.706 99.2204 20.958C98.4224 21.21 98.0164 21.658 98.0164 22.218C98.0164 23.212 99.1364 23.898 101.46 23.898C104.092 23.898 105.492 22.932 105.492 21.336C105.492 20.006 104.624 19.292 102.916 19.292H100.956C100.284 19.292 99.9904 19.068 99.9904 18.718C99.9904 18.55 100.06 18.438 100.2 18.34C100.62 18.48 101.096 18.55 101.642 18.55C103.616 18.55 104.834 17.598 104.834 16.17C104.834 15.484 104.54 14.91 104.022 14.504C104.246 14.336 104.554 14.252 104.932 14.252C105.142 14.252 105.338 14.28 105.576 14.322ZM101.642 17.402C100.984 17.402 100.55 16.884 100.55 16.17C100.55 15.456 100.984 14.98 101.642 14.98C102.286 14.98 102.72 15.456 102.72 16.17C102.72 16.898 102.286 17.402 101.642 17.402ZM102.678 21.168C103.308 21.168 103.616 21.392 103.616 21.84C103.616 22.344 103.014 22.666 101.558 22.666C100.396 22.666 99.6824 22.4 99.6824 21.784C99.6824 21.532 99.7664 21.308 99.9624 21.126C100.116 21.14 100.284 21.154 100.466 21.154L102.678 21.168ZM107.148 17.752H108.94L109.318 10.85H106.77L107.148 17.752ZM109.262 18.858H106.826V21H109.262V18.858Z" fill="white"/>
</svg>
