<svg width="165" height="48" viewBox="0 0 165 48" fill="none" xmlns="http://www.w3.org/2000/svg">
<rect width="165" height="48" rx="3" fill="#1D6AE5"/>
<path d="M38.431 30H40.831L42.735 21.68C42.783 21.44 42.815 21.248 42.831 21.008H42.895C42.911 21.248 42.943 21.44 42.991 21.68L44.895 30H47.295L49.999 18.64H47.903L46.175 26.96C46.111 27.296 46.095 27.504 46.079 27.728H46.031C46.015 27.504 45.983 27.296 45.903 26.96L43.903 18.64H41.823L39.823 26.96C39.743 27.296 39.711 27.504 39.695 27.728H39.647C39.631 27.504 39.615 27.296 39.551 26.96L37.823 18.64H35.727L38.431 30ZM57.7675 25.6C57.7675 23.152 56.4395 21.808 54.1195 21.808C51.7355 21.808 50.2955 23.44 50.2955 26.08C50.2955 28.704 51.7675 30.192 54.2155 30.192C55.8475 30.192 57.1115 29.424 57.7035 28.032L56.2315 27.36C55.8635 28.224 55.1915 28.688 54.2795 28.688C53.0155 28.688 52.1675 27.824 52.1515 26.48H57.7675V25.6ZM55.8795 25.216H52.1515C52.1835 23.888 52.8715 23.088 54.0875 23.088C55.2235 23.088 55.8795 23.776 55.8795 25.088V25.216ZM59.4583 23.216C60.7543 22.752 61.2023 22.032 61.2023 20.736V18.64H58.9303V20.864H60.0663V20.912C60.0663 21.664 59.8903 22.016 59.0263 22.352L59.4583 23.216ZM64.947 23.936V22H63.155V30H65.075V26.656C65.075 25.76 65.155 24.848 65.795 24.224C66.163 23.872 66.691 23.664 67.459 23.664H67.715V21.824C67.635 21.808 67.571 21.808 67.491 21.808C66.195 21.808 65.347 22.672 64.947 23.936ZM75.8925 25.6C75.8925 23.152 74.5645 21.808 72.2445 21.808C69.8605 21.808 68.4205 23.44 68.4205 26.08C68.4205 28.704 69.8925 30.192 72.3405 30.192C73.9725 30.192 75.2365 29.424 75.8285 28.032L74.3565 27.36C73.9885 28.224 73.3165 28.688 72.4045 28.688C71.1405 28.688 70.2925 27.824 70.2765 26.48H75.8925V25.6ZM74.0045 25.216H70.2765C70.3085 23.888 70.9965 23.088 72.2125 23.088C73.3485 23.088 74.0045 23.776 74.0045 25.088V25.216ZM82.0006 30H83.9206V25.76C83.9206 24.208 84.5766 23.328 85.7286 23.328C86.7046 23.328 87.2006 23.968 87.2006 25.184V30H89.1366V25.024C89.1366 22.896 88.2246 21.776 86.4966 21.776C85.2806 21.776 84.4006 22.352 83.9206 23.472V18.4H82.0006V30ZM91.3871 20.672H93.4671V18.672H91.3871V20.672ZM91.4831 30H93.4031V22H91.4831V30ZM97.7439 23.936V22H95.9519V30H97.8719V26.656C97.8719 25.76 97.9519 24.848 98.5919 24.224C98.9599 23.872 99.4879 23.664 100.256 23.664H100.512V21.824C100.432 21.808 100.368 21.808 100.288 21.808C98.9919 21.808 98.1439 22.672 97.7439 23.936ZM101.997 20.672H104.077V18.672H101.997V20.672ZM102.093 30H104.013V22H102.093V30ZM106.561 30H108.481V25.76C108.481 24.24 109.153 23.344 110.273 23.344C111.281 23.344 111.761 23.968 111.761 25.232V30H113.697V25.04C113.697 22.896 112.785 21.792 111.041 21.792C109.809 21.792 108.929 22.368 108.385 23.552V22H106.561V30ZM122.654 22.064C122.878 22.064 123.086 22.096 123.294 22.144V20.704C123.15 20.672 123.006 20.656 122.862 20.656C121.71 20.656 121.006 21.248 120.75 22.128C120.286 21.92 119.71 21.808 119.07 21.808C117.022 21.808 115.774 22.912 115.774 24.496C115.774 25.328 116.126 26.048 116.75 26.544C115.982 26.848 115.502 27.408 115.502 28.24C115.502 28.88 115.806 29.392 116.51 29.68C115.646 29.968 115.182 30.544 115.182 31.248C115.182 32.384 116.19 33.312 118.926 33.312C121.822 33.312 123.198 32.24 123.198 30.592C123.198 29.104 122.238 28.288 120.366 28.288H118.286C117.39 28.288 117.054 27.984 117.054 27.552C117.054 27.264 117.214 27.072 117.454 26.944C117.918 27.136 118.462 27.232 119.07 27.232C121.102 27.232 122.35 26.08 122.35 24.496C122.35 23.712 122.046 23.056 121.502 22.576C121.742 22.24 122.126 22.064 122.654 22.064ZM119.07 26.064C118.174 26.064 117.598 25.408 117.598 24.496C117.598 23.6 118.174 22.976 119.07 22.976C119.966 22.976 120.542 23.6 120.542 24.512C120.542 25.408 119.966 26.064 119.07 26.064ZM120.078 29.936C121.006 29.936 121.47 30.272 121.47 30.912C121.47 31.568 120.878 32.064 119.07 32.064C117.678 32.064 116.766 31.744 116.766 30.896C116.766 30.496 116.958 30.128 117.358 29.888C117.55 29.904 117.774 29.92 117.998 29.92L120.078 29.936ZM125.34 26.72H126.796L127.212 18.4H124.924L125.34 26.72ZM127.164 27.952H124.972V30H127.164V27.952Z" fill="white"/>
</svg>
